<svg width="1600" height="1000" viewBox="0 0 1600 1000" fill="none" xmlns="http://www.w3.org/2000/svg">
  <rect width="1600" height="1000" fill="#09111D"/>
  <rect x="86" y="86" width="1428" height="828" rx="40" fill="#0D1828" stroke="#233855"/>
  <rect x="184" y="166" width="460" height="668" rx="30" fill="#111F33"/>
  <rect x="732" y="166" width="690" height="180" rx="28" fill="#132338"/>
  <rect x="732" y="386" width="320" height="220" rx="28" fill="#16273D"/>
  <rect x="1102" y="386" width="320" height="220" rx="28" fill="#16273D"/>
  <rect x="732" y="646" width="690" height="188" rx="28" fill="#132338"/>
  <rect x="224" y="206" width="80" height="80" fill="#20D3EE"/>
  <rect x="304" y="206" width="80" height="80" fill="#20D3EE"/>
  <rect x="384" y="206" width="80" height="80" fill="#20D3EE"/>
  <rect x="464" y="206" width="80" height="80" fill="#20D3EE"/>
  <rect x="304" y="526" width="80" height="80" fill="#FACC15"/>
  <rect x="384" y="526" width="80" height="80" fill="#FACC15"/>
  <rect x="304" y="606" width="80" height="80" fill="#FACC15"/>
  <rect x="384" y="606" width="80" height="80" fill="#FACC15"/>
  <text x="732" y="248" fill="#F5F8FF" font-size="80" font-family="Georgia, serif">Tetris</text>
  <text x="732" y="324" fill="#7E96B9" font-size="28" font-family="Arial, sans-serif" letter-spacing="4">FRONTEND GAMEPLAY ENGINEERING</text>
</svg>
